# xmcd
#
# Track frame offsets:
#	150
#	10216
#	27228
#	42824
#	49378
#	60019
#	73302
#	84067
#	101037
#	110900
#	120110
#	134112
#	146346
#	158631
#	169186
#	180834
#	192276
#	209925
#	225219
#	238406
#	250659
#	266279
#	284441
#	294285
#	307747
#	320443
#
# Disc length: 4413 seconds
#
# Revision: 1
# Processed by: cddbd v1.4PL0 Copyright (c) Steve Scherf et al.
# Submitted via: audiograbber 1.82.02
#
DISCID=66113b1a
DTITLE=Various Artist - Classic Blues from Smithsonian Folkways
DYEAR=2003
DGENRE=Folk
TTITLE0=Sonny Terry and Brownie McGhee - Old Jabo
TTITLE1=Ridin' Blues- Big Bill Broonzy - Mule
TTITLE2=Memphos Slim and Willie Dixon - Joogie Boogie
TTITLE3=Vera Hall - Black Woman
TTITLE4=K. C. Douglas - Mercury Blues
TTITLE5=Roosevelt Sykes - Ran the Blues Out of My Window
TTITLE6=Lead Belly - Leaving Blues
TTITLE7=Etta Baker - One Dime Blues
TTITLE8=Son House - County Farm Blues
TTITLE9=Champion Jack Dupree - Clog Dance (Stomping Blues)
TTITLE10=Pink Anderson - Boll Weevil
TTITLE11=Edith North Johnson and Henry Brown - Nickel's Worth of Liver
TTITLE12=Big Joe Williams - Don't Leave Me Here
TTITLE13=Cat Iron - Jimmy Bell
TTITLE14=Reverend Gary Davis - Candy Man
TTITLE15=Memphis Slim and Willie Dixon - Beer Drinking Woman
TTITLE16=Lightnin' Hopkins - Come Go Home with Me
TTITLE17=Josh White - Careless Love
TTITLE18=Henry Townsend - I Asked Her If She Loved Me
TTITLE19=Brownie McGhee and Sonny Terry - Rising Sun
TTITLE20=David "Honeyboy" Edwards - Pony Blues
TTITLE21=Little Brother Montgomery - Vicksburg Blues
TTITLE22=Elizabeth Cotten - Vastapol
TTITLE23=Lonnie Johnson - Drifting Along Blues
TTITLE24=The Chambers Brothers - Oh Baby, You Don't Have to Go
TTITLE25=Lead Belly and Josh White - Don't Lie Buddy
EXTD=
EXTT0=
EXTT1=
EXTT2=
EXTT3=
EXTT4=
EXTT5=
EXTT6=
EXTT7=
EXTT8=
EXTT9=
EXTT10=
EXTT11=
EXTT12=
EXTT13=
EXTT14=
EXTT15=
EXTT16=
EXTT17=
EXTT18=
EXTT19=
EXTT20=
EXTT21=
EXTT22=
EXTT23=
EXTT24=
EXTT25=
PLAYORDER=
